# xmcd CD database file
#
# Track frame offsets:
#	150
#	51950
#	65860
#	80992
#	99485
#	112122
#	132067
#	143490
#	158182
#	171835
#	182967
#	224627
#	257262
#
# Disc length: 4260 seconds
#
# Revision: 4
# Processed by: cddbd v1.5.2PL0 Copyright (c) Steve Scherf et al.
# Submitted via: CDex 1.51
#
DISCID=c410a20d
DTITLE=Wardell Gray - Vol. 064 - The Chase
DYEAR=1964
DGENRE=Jazz
TTITLE0=The Chase
TTITLE1=Twisted
TTITLE2=Southside
TTITLE3=Sweet Lorraine
TTITLE4=Farmer's Market
TTITLE5=Easy Living
TTITLE6=Jackie
TTITLE7=Sweet And Lovely
TTITLE8=April Skies
TTITLE9=Little Pony
TTITLE10=Blue Lou
TTITLE11=Be Pop
TTITLE12=The Steeple Chase
EXTD=YEAR: 1964
EXTT0=
EXTT1=
EXTT2=
EXTT3=
EXTT4=
EXTT5=
EXTT6=
EXTT7=
EXTT8=
EXTT9=
EXTT10=
EXTT11=
EXTT12=
PLAYORDER=
